<svg width="23" height="26" viewBox="0 0 23 26" fill="none" xmlns="http://www.w3.org/2000/svg">
<path d="M19.9579 15.9878L22.4795 15.9878L22.4795 13.8941L15.1906 13.8941C15.058 16.0665 13.2338 17.7902 11.0039 17.7902C8.77396 17.7902 6.94974 16.0665 6.81716 13.8941L0.000193625 13.8941L0.000193442 15.9878L2.08161 15.9878C2.19297 16.4181 2.3388 16.8405 2.5138 17.255C2.71266 17.722 2.94865 18.168 3.22175 18.5904L1.40018 20.3929L4.26909 23.2317L6.09331 21.4266C6.51489 21.6916 6.96034 21.9225 7.42435 22.1166C7.9467 22.3344 8.48495 22.5049 9.03381 22.623L9.03381 25.1338L13.0959 25.1338L13.0959 22.602C13.6129 22.4839 14.1194 22.3213 14.6125 22.1166C15.111 21.9093 15.5856 21.6601 16.0337 21.3715L17.8261 23.1451L20.6977 20.3037L18.8761 18.5012C19.1254 18.1051 19.3401 17.6879 19.5257 17.255C19.7007 16.8405 19.8466 16.4181 19.9579 15.9878Z" fill="#FFB629"/>
<path d="M18.8742 4.78514V9.01277C18.8742 9.29966 18.6372 9.53243 18.345 9.53243H17.9702C17.678 9.53243 17.441 9.29966 17.441 9.01277V3.68629C16.3551 2.97717 15.1368 2.44669 13.8304 2.14355V9.4783C13.8304 9.76519 13.5934 9.99795 13.3012 9.99795H9.167C8.87485 9.99795 8.63782 9.76519 8.63782 9.4783V2.14355C7.34793 2.44669 6.12971 2.98258 5.04378 3.68629V9.01277C5.04378 9.29966 4.80675 9.53243 4.5146 9.53243H4.13976C3.8476 9.53243 3.61057 9.29966 3.61057 9.01277V4.78514C1.39462 6.79881 0 9.67317 0 12.8723H22.4793C22.4848 9.67317 21.0957 6.79881 18.8742 4.78514Z" fill="#FFB629"/>
<path d="M12.7724 8.60296C12.7724 8.84489 12.5951 9.0405 12.3721 9.0405H10.1074C9.89004 9.0405 9.70703 8.84489 9.70703 8.60296V1.30375C9.70703 1.06182 9.88432 0.866211 10.1074 0.866211H12.3721C12.5894 0.866211 12.7724 1.06182 12.7724 1.30375V8.60296Z" fill="#FFB629"/>
</svg>
